<svg width="416" height="419" viewBox="0 0 416 419" fill="none" xmlns="http://www.w3.org/2000/svg">
<path d="M1.70094 206.547C2.80094 190.897 11.201 96.8366 94.231 41.5166C106.831 33.1166 172.421 -8.54336 253.541 11.9466C313.961 27.2066 348.121 68.1366 361.341 84.4466C371.911 97.4866 409.921 145.837 410.951 217.997C411.191 234.977 412.251 309.497 356.571 362.997C285.371 431.407 181.831 407.387 159.101 402.107C134.531 396.407 58.431 378.747 20.781 309.577C-2.07898 267.577 0.270945 226.867 1.70094 206.547Z" fill="#FCDB00"/>
<path d="M0.960912 206.487C1.42091 199.767 2.27092 193.087 3.34092 186.447C4.38092 179.797 5.76089 173.207 7.31089 166.647C10.4609 153.557 14.5609 140.657 19.7009 128.147L20.661 125.797L21.6809 123.477C22.3709 121.927 23.0209 120.367 23.7309 118.827C25.1909 115.777 26.6109 112.687 28.2109 109.697C31.2609 103.627 34.7109 97.7566 38.3409 91.9866C45.7309 80.5366 54.161 69.6466 63.781 59.8166C73.431 50.0166 84.0809 41.1866 95.6009 33.4966C101.381 29.6866 107.381 26.2566 113.491 23.0566C119.631 19.9166 125.911 17.0167 132.321 14.4667C157.931 4.18666 185.831 -1.05338 213.561 0.176622C217.031 0.256622 220.481 0.616612 223.931 0.916612C225.651 1.09661 227.371 1.33662 229.091 1.54662L231.671 1.87657C232.531 1.99657 233.381 2.15662 234.231 2.29662L239.351 3.1566L244.431 4.21666C247.831 4.85666 251.141 5.84663 254.491 6.68663C267.761 10.4766 280.611 15.6366 292.691 22.1266C304.771 28.6266 316.141 36.3066 326.611 45.0166C327.921 46.0966 329.181 47.2467 330.481 48.3467C331.751 49.4767 333.081 50.5367 334.311 51.7167C336.791 54.0467 339.311 56.3266 341.681 58.7566C346.541 63.4966 351.091 68.5366 355.511 73.6666C359.921 78.8166 364.121 84.0566 368.241 89.4566C372.321 94.8666 376.101 100.497 379.751 106.197C381.491 109.097 383.331 111.947 384.941 114.927L387.441 119.347C388.251 120.837 389.001 122.357 389.781 123.857C390.551 125.367 391.351 126.857 392.091 128.387L394.231 132.997C394.941 134.537 395.701 136.057 396.361 137.617L398.311 142.317C398.951 143.887 399.631 145.437 400.241 147.027L401.961 151.817L403.681 156.607L405.171 161.477C406.161 164.727 407.241 167.957 407.991 171.277L409.231 176.227C409.641 177.877 410.091 179.527 410.371 181.207C413.341 194.507 414.551 208.197 415.131 221.787C415.541 235.417 414.821 249.137 412.881 262.717C411.901 269.507 410.621 276.277 408.981 282.967C407.321 289.657 405.321 296.277 402.981 302.787C398.381 315.847 392.071 328.347 384.481 340.047C380.631 345.857 376.451 351.477 371.941 356.807C370.811 358.137 369.621 359.417 368.461 360.727L366.711 362.677L364.881 364.557C363.651 365.807 362.451 367.067 361.201 368.297L357.351 371.867C347.041 381.317 335.571 389.617 323.161 396.157C320.041 397.757 316.951 399.427 313.731 400.807C312.131 401.527 310.551 402.277 308.941 402.957L304.061 404.907L301.621 405.877L299.141 406.737L294.181 408.457C292.521 408.997 290.841 409.467 289.171 409.977C287.491 410.467 285.831 411.007 284.131 411.407L279.061 412.697C277.371 413.137 275.661 413.447 273.951 413.827C270.551 414.607 267.111 415.157 263.681 415.737C256.801 416.767 249.891 417.597 242.971 418.007C236.051 418.487 229.121 418.597 222.211 418.447C215.301 418.307 208.401 417.957 201.541 417.247C187.831 415.887 174.201 413.617 160.881 410.417C154.311 408.847 147.681 407.237 141.061 405.337C134.451 403.457 127.901 401.297 121.431 398.907C95.6109 389.327 71.1509 375.067 51.2509 355.837C46.281 351.037 41.6609 345.897 37.3009 340.567C32.9809 335.207 29.061 329.547 25.391 323.747C23.681 320.767 21.8509 317.877 20.3109 314.817C19.5309 313.297 18.6909 311.807 17.9509 310.267L15.8009 305.617C14.2809 302.557 13.1209 299.347 11.8209 296.207C11.1509 294.647 10.6509 293.007 10.0909 291.407L8.43088 286.587C4.44088 273.597 1.76093 260.257 0.730931 246.797C0.420931 243.437 0.280946 240.067 0.120946 236.707L0.0109604 231.657C-0.0190395 229.977 0.02098 228.287 0.03098 226.607C0.09098 219.877 0.450921 213.157 0.970921 206.457L0.960912 206.487ZM2.46091 206.597C2.02091 213.277 1.70093 219.957 1.73093 226.647C1.78093 233.327 2.12099 240.007 2.92099 246.627C3.25099 249.947 3.8309 253.227 4.3209 256.517L5.29099 261.417C5.46099 262.227 5.61099 263.047 5.79099 263.857L6.39097 266.277C7.85097 272.767 9.99094 279.067 12.2409 285.287C17.0109 297.657 23.4309 309.307 31.0809 319.967C34.9909 325.237 39.141 330.317 43.631 335.077C48.151 339.807 52.901 344.277 57.901 348.457C62.921 352.607 68.1609 356.487 73.5809 360.077C79.0109 363.657 84.631 366.947 90.381 369.987C96.131 373.017 102.001 375.827 108.011 378.337C113.991 380.897 120.101 383.167 126.281 385.247C138.661 389.427 151.261 392.577 164.291 395.357C177.121 398.117 190.021 400.197 203.021 401.317C209.511 401.887 216.021 402.267 222.511 402.367C225.761 402.457 229.011 402.397 232.251 402.367L237.111 402.197C238.731 402.167 240.351 402.067 241.961 401.957C254.901 401.227 267.711 399.307 280.201 396.247C305.141 390.057 328.661 378.387 347.861 361.327L351.461 358.137C352.631 357.037 353.751 355.897 354.911 354.777L356.631 353.087L358.271 351.327C359.361 350.147 360.481 348.997 361.541 347.787C365.791 342.967 369.741 337.887 373.451 332.627C377.111 327.327 380.451 321.797 383.501 316.107L385.731 311.797L387.821 307.417C389.171 304.477 390.511 301.517 391.701 298.497C394.141 292.477 396.271 286.317 398.091 280.057C399.941 273.797 401.491 267.437 402.751 261.007C405.261 248.137 406.621 235.017 406.881 221.817C406.981 218.497 406.871 215.197 406.801 211.917C406.691 208.627 406.781 205.317 406.401 202.047C406.111 198.767 405.871 195.477 405.551 192.187L404.081 182.397C403.871 180.757 403.501 179.147 403.171 177.527L402.151 172.677C401.551 169.417 400.621 166.247 399.771 163.047L398.441 158.267L396.881 153.557L395.321 148.837C394.771 147.277 394.141 145.747 393.551 144.197C388.841 131.807 382.851 119.887 375.871 108.597C372.341 102.977 368.601 97.4866 364.571 92.2066C360.551 86.9366 356.231 81.8167 351.841 76.8467C343.021 66.9167 333.291 57.8266 322.771 49.8266C312.191 41.9066 300.901 35.0066 288.971 29.5266C277.061 24.0166 264.611 19.8466 251.891 16.9866C239.151 14.2566 226.191 12.6766 213.231 12.6666C187.301 12.4566 161.461 17.5667 137.151 26.8367C131.071 29.1567 125.061 31.6766 119.191 34.5066C113.301 37.2966 107.541 40.3566 101.951 43.6466C100.551 44.4766 99.161 45.3066 97.791 46.1766L93.7109 48.8666C92.3609 49.7766 90.981 50.6466 89.631 51.5666L85.661 54.4166C80.341 58.2066 75.311 62.3866 70.391 66.6966C60.601 75.3866 51.7009 85.1566 43.7509 95.6966C39.8309 101.007 36.061 106.457 32.651 112.147C29.201 117.807 26.041 123.667 23.171 129.667C20.261 135.647 17.681 141.807 15.381 148.057C13.051 154.307 11.021 160.677 9.28098 167.117C7.53098 173.567 6.11088 180.097 4.93088 186.677C3.80088 193.267 2.96092 199.897 2.47092 206.557L2.46091 206.597Z" fill="#0E2980"/>
<path d="M98.331 145.017C100.141 141.027 104.591 131.247 115.041 127.877C124.991 124.667 137.091 128.317 143.751 137.307C152.701 149.367 146.481 163.787 145.461 166.017C144.581 167.957 138.831 180.897 125.751 183.157C111.621 185.597 97.681 174.067 95.321 161.727C93.961 154.607 96.711 148.557 98.321 145.017H98.331Z" fill="#0E2980"/>
<path d="M121.921 183.987C108.781 183.987 96.9609 172.897 94.8409 161.827C93.4509 154.547 96.221 148.457 97.881 144.807C99.781 140.627 104.231 130.837 114.901 127.397C125.251 124.057 137.561 128.097 144.171 137.007C152.831 148.677 147.711 162.317 145.941 166.227C143.851 170.827 137.781 181.597 125.861 183.657C124.551 183.887 123.231 183.997 121.941 183.997L121.921 183.987ZM98.3309 145.017L98.781 145.227C97.171 148.767 94.4909 154.677 95.8209 161.637C97.8609 172.307 109.251 182.987 121.901 182.987C123.151 182.987 124.411 182.887 125.681 182.667C137.131 180.687 143.001 170.267 145.001 165.877C146.751 162.037 151.701 148.837 143.371 137.607C137.011 129.037 125.171 125.147 115.211 128.357C104.961 131.667 100.641 141.167 98.8009 145.227L98.3409 145.017H98.3309Z" fill="#0E2980"/>
<path d="M262.691 145.017C264.501 141.027 268.951 131.247 279.401 127.877C289.351 124.667 301.451 128.317 308.111 137.307C317.061 149.367 310.841 163.787 309.821 166.017C308.941 167.957 303.191 180.897 290.111 183.157C275.981 185.597 262.041 174.067 259.681 161.727C258.321 154.607 261.071 148.557 262.681 145.017H262.691Z" fill="#0E2980"/>
<path d="M286.271 183.987C273.131 183.987 261.311 172.897 259.191 161.827C257.801 154.547 260.571 148.457 262.231 144.807C264.131 140.627 268.581 130.837 279.251 127.397C289.601 124.057 301.911 128.097 308.521 137.007C317.181 148.677 312.061 162.317 310.291 166.227C308.201 170.827 302.131 181.597 290.211 183.657C288.901 183.887 287.581 183.997 286.291 183.997L286.271 183.987ZM262.681 145.017L263.141 145.227C261.531 148.767 258.851 154.677 260.181 161.637C262.221 172.307 273.611 182.987 286.261 182.987C287.511 182.987 288.771 182.887 290.041 182.667C301.491 180.687 307.361 170.267 309.361 165.877C311.111 162.037 316.061 148.827 307.731 137.607C301.371 129.037 289.521 125.147 279.571 128.357C269.321 131.667 265.001 141.167 263.161 145.227L262.701 145.017H262.681Z" fill="#0E2980"/>
<path d="M108.911 289.137C109.371 286.377 109.931 283.597 110.691 280.867C111.121 279.537 111.571 278.197 112.051 276.867C112.281 276.197 112.521 275.527 112.771 274.867C113.011 274.197 113.271 273.537 113.571 272.907C114.781 270.367 115.911 267.727 117.371 265.297C118.091 264.077 118.841 262.867 119.591 261.647C119.961 261.037 120.341 260.427 120.731 259.827L121.991 258.107C122.831 256.957 123.691 255.807 124.561 254.677C125.411 253.517 126.361 252.457 127.321 251.397L130.221 248.227C130.691 247.687 131.201 247.187 131.741 246.707L133.321 245.247C134.381 244.277 135.431 243.297 136.501 242.347C137.601 241.427 138.771 240.587 139.941 239.747C141.111 238.917 142.261 238.057 143.481 237.297C144.721 236.557 145.981 235.867 147.251 235.187C147.881 234.837 148.511 234.507 149.161 234.187C149.791 233.857 150.431 233.527 151.101 233.267C152.441 232.727 153.761 232.167 155.101 231.657C157.731 230.547 160.531 229.827 163.241 228.987L165.271 228.387L167.341 227.897C168.721 227.577 170.081 227.227 171.431 226.877C172.771 226.487 174.151 226.247 175.521 225.957C176.871 225.637 178.241 225.367 179.571 225.017C180.901 224.647 182.291 224.507 183.641 224.197C184.991 223.927 186.341 223.627 187.691 223.297C190.411 222.847 193.141 222.367 195.861 221.827C197.241 221.677 198.611 221.447 199.991 221.267C201.371 221.067 202.751 220.807 204.141 220.637C205.531 220.487 206.931 220.327 208.341 220.147L212.581 219.807C218.251 219.447 224.051 219.517 229.781 220.337C235.511 221.127 241.121 222.717 246.571 224.677C257.481 228.587 267.801 234.247 276.621 241.577C285.411 248.937 292.921 257.557 299.171 266.857C302.301 271.507 305.121 276.337 307.591 281.327C310.061 286.317 312.221 291.447 313.861 296.787C313.991 297.227 313.751 297.687 313.311 297.817C313.011 297.907 312.701 297.817 312.491 297.617C308.491 293.767 304.701 289.887 300.891 286.097C297.091 282.307 293.311 278.597 289.491 274.987C281.851 267.787 274.071 261.027 265.971 254.947C257.901 248.857 249.701 243.057 240.711 238.607C236.221 236.387 231.551 234.567 226.791 232.857C222.031 231.167 217.121 229.617 212.031 228.547L208.181 227.857C206.891 227.677 205.591 227.527 204.291 227.387C201.681 227.197 199.061 227.187 196.421 227.187C195.111 227.267 193.801 227.407 192.501 227.557C191.191 227.697 189.881 227.837 188.581 228.057C186.011 228.617 183.431 229.167 180.931 229.997C178.471 230.937 175.981 231.797 173.651 233.037C172.491 233.667 171.331 234.287 170.201 234.937L168.501 235.907L166.871 237.027C164.721 238.547 162.531 239.897 160.541 241.597C159.531 242.417 158.501 243.177 157.491 243.957C156.441 244.677 155.531 245.617 154.521 246.377C153.531 247.177 152.541 247.967 151.531 248.717C150.561 249.537 149.601 250.357 148.621 251.147C147.661 251.957 146.631 252.697 145.651 253.487C144.701 254.317 143.721 255.107 142.751 255.917C141.791 256.737 140.771 257.497 139.851 258.357L137.041 260.917C135.071 262.537 133.381 264.437 131.491 266.167L130.101 267.497C129.671 267.977 129.231 268.437 128.791 268.897C127.901 269.827 127.021 270.767 126.111 271.687C125.161 272.587 124.351 273.587 123.481 274.557L120.841 277.467C119.081 279.427 117.471 281.507 115.641 283.517C113.951 285.597 112.261 287.717 110.361 289.807L110.321 289.857C110.011 290.197 109.491 290.217 109.161 289.907C108.951 289.717 108.861 289.427 108.901 289.167L108.911 289.137Z" fill="#0E2980"/>
<path d="M65.781 117.577C67.871 116.207 69.9709 115.237 72.0509 114.317C74.1409 113.417 76.2309 112.667 78.3209 111.987C80.4109 111.317 82.5009 110.727 84.6109 110.207C86.7109 109.687 88.831 109.287 91.041 109.207C95.421 108.997 100.131 109.707 104.461 108.797C108.791 107.927 112.831 106.017 116.541 103.457C118.411 102.197 120.241 100.907 122.111 99.7267C123.971 98.5467 125.891 97.5367 127.791 96.4667C131.571 94.3267 135.251 92.0666 139.161 90.2666C141.121 89.3666 143.101 88.5167 145.131 87.7167C147.151 86.9067 149.191 86.1266 151.281 85.3966C155.471 83.9366 159.741 82.5366 164.511 81.6766C164.861 81.6166 165.191 81.8466 165.251 82.1866C165.281 82.3466 165.251 82.5066 165.171 82.6266C163.911 84.7166 162.451 86.5867 160.911 88.3367C159.371 90.0967 157.721 91.7266 156.001 93.2666C154.281 94.7966 152.491 96.2567 150.621 97.5867C148.771 98.9467 146.851 100.197 144.851 101.307C140.871 103.567 136.531 105.117 132.191 106.527C130.021 107.237 127.851 107.947 125.591 108.407C124.471 108.657 123.321 108.837 122.171 108.987C121.021 109.157 119.881 109.307 118.721 109.427C116.421 109.707 114.151 109.977 111.951 110.467C109.751 110.957 107.601 111.557 105.511 112.377C101.331 113.977 97.451 116.927 93.171 118.657C91.041 119.547 88.8209 120.067 86.5709 120.377C84.3209 120.707 82.041 120.887 79.751 120.917C77.461 120.957 75.1609 120.827 72.8409 120.487C70.5309 120.137 68.211 119.647 65.891 118.717C65.551 118.587 65.391 118.207 65.531 117.867C65.581 117.737 65.671 117.637 65.781 117.567V117.577Z" fill="#0E2980"/>
<path d="M341.951 118.737C339.631 119.667 337.311 120.157 335.001 120.507C332.691 120.837 330.381 120.967 328.091 120.937C325.801 120.907 323.521 120.737 321.271 120.397C319.021 120.087 316.801 119.567 314.671 118.677C310.391 116.947 306.511 113.997 302.331 112.397C300.241 111.577 298.091 110.977 295.891 110.487C293.701 109.997 291.421 109.727 289.121 109.447C287.971 109.327 286.821 109.177 285.671 109.007C284.521 108.857 283.371 108.677 282.251 108.427C279.991 107.967 277.821 107.257 275.651 106.547C271.301 105.127 266.971 103.587 262.991 101.327C261.001 100.207 259.071 98.9565 257.221 97.6065C255.351 96.2765 253.571 94.8266 251.841 93.2866C250.121 91.7466 248.471 90.1165 246.931 88.3565C245.381 86.5965 243.931 84.7266 242.671 82.6466C242.491 82.3466 242.581 81.9565 242.881 81.7665C243.021 81.6865 243.181 81.6566 243.321 81.6866C248.091 82.5466 252.361 83.9466 256.551 85.4066C258.641 86.1366 260.691 86.9166 262.701 87.7266C264.721 88.5266 266.711 89.3766 268.671 90.2766C272.581 92.0766 276.261 94.3466 280.041 96.4766C281.931 97.5466 283.851 98.5565 285.721 99.7365C287.581 100.917 289.421 102.207 291.291 103.467C295.011 106.027 299.051 107.937 303.371 108.807C307.701 109.717 312.411 109.007 316.791 109.217C318.991 109.297 321.111 109.697 323.221 110.217C325.321 110.727 327.421 111.317 329.511 111.997C331.601 112.677 333.691 113.427 335.781 114.327C337.871 115.247 339.961 116.217 342.051 117.587C342.351 117.787 342.441 118.197 342.241 118.497C342.161 118.617 342.061 118.697 341.941 118.747L341.951 118.737Z" fill="#0E2980"/>
</svg>
