<svg width="409" height="413" viewBox="0 0 409 413" fill="none" xmlns="http://www.w3.org/2000/svg">
<path d="M20.47 132.801C30.71 108.521 55.73 62.1814 109.51 32.3214C130.73 20.5414 182.06 -2.91858 245.61 10.7014C306.48 23.7414 341.56 62.8714 353.73 76.8414C365.95 90.8714 404.83 139.291 405.88 211.671C406.1 226.911 407.17 300.961 351.19 355.401C278.36 426.221 173.08 401.541 155.31 397.371C131.6 391.811 70.65 377.531 31.93 321.051C-23.19 240.651 15.17 145.391 20.48 132.801H20.47Z" fill="#FCDB00"/>
<path d="M19.77 132.501C22.32 126.391 25.22 120.431 28.31 114.581C31.32 108.681 34.8 103.031 38.28 97.4014C45.45 86.2514 53.5499 75.6714 62.5699 65.8714C71.5999 56.0814 81.55 47.0714 92.36 39.1114C95.09 37.1614 97.75 35.0914 100.61 33.3414L104.85 30.6114C106.27 29.7014 107.67 28.7714 109.13 27.9414C112.02 26.2114 114.97 24.5814 117.94 23.0014L122.43 20.6714L127 18.4914C128.52 17.7514 130.07 17.0814 131.62 16.4214C133.17 15.7614 134.72 15.0714 136.28 14.4314L141.01 12.5914L143.38 11.6714L145.78 10.8414L150.59 9.1814C152.19 8.6114 153.83 8.1914 155.46 7.7014L160.35 6.2814L165.3 5.0814C166.95 4.6914 168.6 4.2414 170.27 3.9214L175.29 2.9814C176.97 2.6914 178.63 2.3114 180.32 2.0914L185.39 1.4114C187.08 1.2114 188.77 0.931395 190.47 0.811395L195.57 0.431396C197.27 0.311396 198.97 0.161396 200.68 0.0813956L205.8 0.0113955C219.46 -0.138604 233.16 1.1914 246.52 4.0514C259.86 7.0014 272.89 11.3914 285.23 17.1914C297.57 23.0014 309.21 30.1714 319.98 38.3814C321.36 39.3714 322.63 40.4914 323.95 41.5414C325.26 42.6114 326.59 43.6614 327.87 44.7614C330.39 47.0114 332.99 49.1714 335.41 51.5314C340.37 56.1114 345.02 61.0014 349.49 66.0114C350.62 67.2614 351.71 68.5314 352.79 69.8114C353.89 71.0814 354.95 72.3714 356.01 73.6514L359.18 77.5614L362.27 81.5414C366.32 86.9014 370.04 92.4714 373.62 98.1314C380.64 109.521 386.76 121.441 391.8 133.791C396.82 146.141 400.89 158.901 403.66 171.951L403.95 173.171L404.17 174.401L404.61 176.861L405.48 181.791C406.15 185.061 406.47 188.381 406.87 191.701C407.82 198.311 407.97 204.991 408.42 211.661C409.15 238.291 405.77 265.231 397.22 290.821C388.69 316.351 374.59 340.461 355.26 359.841C336.02 379.301 311.71 393.761 285.68 402.191C282.41 403.181 279.16 404.281 275.84 405.101L270.88 406.411L265.88 407.531L263.38 408.091L260.86 408.561L255.82 409.491L250.76 410.251C249.07 410.511 247.38 410.751 245.69 410.921L240.61 411.491L235.52 411.911L232.97 412.111L230.42 412.241C228.72 412.321 227.02 412.431 225.32 412.491C218.52 412.711 211.72 412.671 204.94 412.401C191.37 411.831 177.87 410.201 164.53 407.631C161.2 406.981 157.86 406.271 154.59 405.501C151.35 404.741 148.11 403.971 144.83 403.151C138.29 401.501 131.73 399.651 125.27 397.491C112.36 393.141 99.7 387.791 87.74 381.061C75.77 374.361 64.4499 366.391 54.2599 357.131C33.8599 338.621 18.31 314.951 9.57996 289.171C5.17996 276.301 2.30996 262.991 1.01996 249.611L0.539978 244.591L0.259949 239.561L0.119995 237.051L0.0799561 234.541L0 229.521C0.06 222.831 0.299973 216.161 0.909973 209.531C1.00997 207.871 1.23997 206.221 1.40997 204.561C1.58997 202.911 1.75 201.251 2 199.611L2.66998 194.671L3.45996 189.751C4.59996 183.211 5.90999 176.711 7.48999 170.271C9.07999 163.841 10.84 157.451 12.91 151.161C14.95 144.861 17.18 138.621 19.77 132.531V132.501ZM21.15 133.081C16.15 145.231 12.3499 157.881 9.62994 170.731C6.92994 183.581 5.29 196.661 4.94 209.731L4.84998 214.631C4.84998 216.261 4.89998 217.901 4.91998 219.531C4.93998 221.161 4.97996 222.791 5.07996 224.421L5.33997 229.301L5.78998 234.161L6.01996 236.591L6.33997 239.011L6.97998 243.841L7.81 248.631C10.02 261.401 13.8399 273.801 18.8799 285.561C20.0599 288.541 21.54 291.381 22.91 294.261C23.57 295.711 24.37 297.101 25.14 298.491L27.44 302.681C29.09 305.411 30.78 308.101 32.48 310.791L35.2 314.711C36.12 316.011 36.97 317.351 37.96 318.591C41.71 323.711 45.84 328.531 50.16 333.151C54.46 337.781 59.05 342.141 63.87 346.211C73.5 354.381 84.01 361.501 95.18 367.471C106.36 373.421 118.13 378.331 130.27 382.251C136.35 384.181 142.49 385.961 148.75 387.511C151.87 388.291 155.05 389.041 158.23 389.781C161.38 390.511 164.49 391.181 167.63 391.821C180.19 394.321 192.94 395.931 205.72 396.731C212.11 397.091 218.51 397.241 224.9 397.141C226.5 397.111 228.09 397.041 229.69 396.991L232.08 396.911L234.47 396.761L239.25 396.451L244.01 395.991C245.6 395.861 247.18 395.661 248.76 395.451L253.5 394.841L258.21 394.071L260.57 393.681L262.91 393.211L267.59 392.271L272.22 391.151C275.33 390.461 278.35 389.501 281.41 388.651C305.71 381.321 328.25 368.561 346.87 351.181C356.13 342.451 364.5 332.741 371.65 322.111C378.83 311.501 384.75 300.001 389.5 287.991C394.2 275.961 397.75 263.411 400.02 250.611C401.16 244.211 402.05 237.751 402.6 231.261C403.14 224.761 403.35 218.261 403.33 211.711C403.17 198.681 401.86 185.661 399.23 172.871L396.99 163.341C396.13 160.191 395.14 157.081 394.22 153.951C393.98 153.171 393.77 152.381 393.51 151.611L392.68 149.311L391.01 144.711C389.96 141.621 388.59 138.651 387.35 135.641C382.17 123.671 375.82 112.221 368.48 101.471C364.73 96.1514 360.85 90.9414 356.68 85.9714L353.51 82.2814C352.42 81.0714 351.36 79.8714 350.24 78.6814C349.13 77.4914 348.01 76.2914 346.88 75.1314C345.76 73.9514 344.63 72.7914 343.47 71.6614C325.17 53.3314 303.62 38.5114 280.11 28.5914C268.37 23.6014 256.18 19.8014 243.73 17.1714C231.26 14.6514 218.57 13.3514 205.85 13.2914L201.08 13.2614C199.49 13.3014 197.9 13.4014 196.31 13.4714L191.54 13.6914C189.95 13.7614 188.37 13.9914 186.78 14.1314L182.02 14.5814C180.43 14.7214 178.86 15.0214 177.28 15.2214L172.54 15.9114C170.96 16.1614 169.4 16.5014 167.82 16.7814C155.26 19.1914 142.79 22.5514 130.77 27.2614C124.73 29.5414 118.82 32.1614 113.01 35.0114C107.28 38.0014 101.53 41.0114 96.0699 44.5314C85.0699 51.4114 74.71 59.4314 65.3 68.5214C55.88 77.5814 47.41 87.6914 39.98 98.5114C36.34 103.971 32.85 109.551 29.73 115.331C26.6 121.111 23.73 127.031 21.16 133.081H21.15Z" fill="#0E2980"/>
<path d="M356.5 204.241C353.37 203.461 350.63 202.251 347.98 200.961C345.35 199.651 342.88 198.161 340.52 196.561C338.16 194.961 335.93 193.221 333.79 191.391C331.64 189.571 329.65 187.581 327.99 185.251C324.63 180.621 322.33 174.881 318.59 170.651C314.9 166.371 310.25 163.101 305.12 160.331C302.58 158.921 300 157.561 297.59 156.011C295.16 154.481 292.95 152.731 290.7 151.011C286.2 147.581 281.68 144.171 277.79 140.101C275.83 138.081 273.98 135.951 272.21 133.731C270.42 131.531 268.72 129.241 267.1 126.861C265.48 124.491 263.93 122.031 262.51 119.451C261.09 116.861 259.75 114.191 258.68 111.241C258.51 110.781 258.75 110.261 259.21 110.091C259.4 110.021 259.6 110.021 259.78 110.081C262.78 111.001 265.52 112.201 268.18 113.491C270.83 114.781 273.36 116.201 275.82 117.701C278.27 119.201 280.65 120.781 282.94 122.461C285.25 124.111 287.47 125.861 289.59 127.711C293.85 131.391 297.49 135.731 301.14 140.051C302.97 142.211 304.83 144.331 306.48 146.681C308.15 149.011 309.64 151.521 311.18 153.981C314.2 158.971 317.7 163.441 322.17 166.911C326.58 170.431 332.43 172.441 337.23 175.561C339.64 177.111 341.73 178.981 343.66 181.041C345.6 183.081 347.44 185.231 349.16 187.501C350.88 189.771 352.48 192.171 353.93 194.731C355.36 197.311 356.7 199.981 357.64 203.071C357.79 203.561 357.51 204.071 357.03 204.221C356.87 204.271 356.69 204.271 356.54 204.231L356.5 204.241Z" fill="#0E2980"/>
<path d="M234.7 205.151C235.64 202.061 236.98 199.391 238.41 196.811C239.86 194.251 241.46 191.861 243.18 189.581C244.9 187.311 246.74 185.171 248.68 183.121C250.6 181.061 252.7 179.181 255.11 177.641C259.91 174.521 265.76 172.511 270.17 168.991C274.63 165.521 278.14 161.051 281.16 156.061C282.69 153.591 284.19 151.081 285.86 148.761C287.51 146.411 289.37 144.291 291.2 142.131C294.85 137.811 298.49 133.471 302.75 129.791C304.87 127.941 307.09 126.191 309.4 124.541C311.69 122.861 314.06 121.281 316.52 119.781C318.97 118.281 321.51 116.861 324.16 115.571C326.82 114.281 329.56 113.081 332.56 112.161C333.03 112.011 333.53 112.281 333.68 112.751C333.74 112.941 333.73 113.141 333.67 113.321C332.6 116.271 331.26 118.941 329.84 121.531C328.41 124.111 326.87 126.571 325.25 128.941C323.63 131.311 321.93 133.611 320.14 135.811C318.37 138.031 316.51 140.161 314.56 142.181C310.67 146.251 306.15 149.661 301.65 153.091C299.4 154.811 297.19 156.561 294.76 158.091C292.35 159.641 289.77 161.001 287.23 162.411C282.1 165.171 277.45 168.451 273.76 172.731C270.02 176.961 267.71 182.701 264.36 187.331C262.69 189.661 260.71 191.651 258.56 193.471C256.42 195.301 254.19 197.031 251.83 198.641C249.47 200.241 247 201.721 244.37 203.041C241.72 204.341 238.99 205.541 235.85 206.321C235.36 206.441 234.86 206.141 234.74 205.651C234.7 205.481 234.71 205.311 234.75 205.161L234.7 205.151Z" fill="#0E2980"/>
<path d="M172.64 204.241C169.51 203.461 166.77 202.251 164.12 200.961C161.49 199.651 159.02 198.161 156.66 196.561C154.3 194.961 152.07 193.221 149.93 191.391C147.78 189.571 145.79 187.581 144.13 185.251C140.77 180.621 138.47 174.881 134.73 170.651C131.04 166.371 126.39 163.101 121.26 160.331C118.72 158.921 116.14 157.561 113.73 156.011C111.3 154.481 109.09 152.731 106.84 151.011C102.34 147.581 97.82 144.171 93.93 140.101C91.97 138.081 90.12 135.951 88.35 133.731C86.56 131.531 84.86 129.241 83.24 126.861C81.62 124.491 80.07 122.031 78.65 119.451C77.23 116.861 75.8899 114.191 74.8199 111.241C74.6499 110.781 74.89 110.261 75.35 110.091C75.54 110.021 75.74 110.021 75.92 110.081C78.92 111.001 81.6599 112.201 84.3199 113.491C86.9699 114.781 89.5 116.201 91.96 117.701C94.41 119.201 96.79 120.781 99.08 122.461C101.39 124.111 103.61 125.861 105.73 127.711C109.99 131.391 113.63 135.731 117.28 140.051C119.11 142.211 120.97 144.331 122.62 146.681C124.29 149.011 125.78 151.521 127.32 153.981C130.34 158.971 133.84 163.441 138.31 166.911C142.72 170.431 148.57 172.441 153.37 175.561C155.78 177.111 157.87 178.981 159.8 181.041C161.74 183.081 163.58 185.231 165.3 187.501C167.02 189.771 168.62 192.171 170.07 194.731C171.5 197.311 172.84 199.981 173.78 203.071C173.93 203.561 173.65 204.071 173.17 204.221C173.01 204.271 172.83 204.271 172.68 204.231L172.64 204.241Z" fill="#0E2980"/>
<path d="M50.84 205.151C51.78 202.061 53.12 199.391 54.55 196.811C56 194.251 57.5999 191.861 59.3199 189.581C61.0399 187.311 62.8799 185.171 64.8199 183.121C66.7399 181.061 68.84 179.181 71.25 177.641C76.05 174.521 81.9 172.511 86.31 168.991C90.77 165.521 94.28 161.051 97.3 156.061C98.83 153.591 100.33 151.081 102 148.761C103.65 146.411 105.51 144.291 107.34 142.131C110.99 137.811 114.63 133.471 118.89 129.791C121.01 127.941 123.23 126.191 125.54 124.541C127.83 122.861 130.2 121.281 132.66 119.781C135.11 118.281 137.65 116.861 140.3 115.571C142.96 114.281 145.7 113.081 148.7 112.161C149.17 112.011 149.67 112.281 149.82 112.751C149.88 112.941 149.87 113.141 149.81 113.321C148.74 116.271 147.4 118.941 145.98 121.531C144.55 124.111 143.01 126.571 141.39 128.941C139.77 131.311 138.07 133.611 136.28 135.811C134.51 138.031 132.65 140.161 130.7 142.181C126.81 146.251 122.29 149.661 117.79 153.091C115.54 154.811 113.33 156.561 110.9 158.091C108.49 159.641 105.91 161.001 103.37 162.411C98.24 165.171 93.59 168.451 89.9 172.731C86.16 176.961 83.85 182.701 80.5 187.331C78.83 189.661 76.85 191.651 74.7 193.471C72.56 195.301 70.33 197.031 67.97 198.641C65.61 200.241 63.1399 201.721 60.5099 203.041C57.8599 204.341 55.13 205.541 51.99 206.321C51.5 206.441 50.9999 206.141 50.8799 205.651C50.8399 205.481 50.85 205.311 50.89 205.161L50.84 205.151Z" fill="#0E2980"/>
<path d="M100.72 256.201C105.03 254.611 109.34 253.601 113.66 252.711C117.97 251.851 122.28 251.221 126.6 250.771C130.91 250.311 135.22 250.011 139.54 249.871C143.85 249.711 148.16 249.781 152.48 250.331C161.1 251.361 169.73 253.951 178.35 254.431C182.66 254.721 186.97 254.611 191.29 254.311C195.6 254.021 199.91 253.341 204.23 252.621C208.54 251.891 212.85 251.101 217.17 250.561C221.48 250.001 225.79 249.741 230.11 249.441C238.73 248.831 247.36 248.191 255.99 248.451C260.3 248.571 264.61 248.831 268.93 249.221C273.24 249.581 277.55 250.071 281.87 250.671C286.18 251.271 290.49 251.991 294.81 252.881C299.12 253.781 303.43 254.791 307.75 256.191C308.19 256.331 308.43 256.811 308.29 257.251C308.2 257.511 307.99 257.711 307.75 257.791C303.44 259.191 299.13 260.201 294.81 261.101C290.5 261.991 286.19 262.711 281.87 263.311C277.56 263.911 273.25 264.401 268.93 264.761C264.62 265.151 260.31 265.411 255.99 265.531C247.37 265.791 238.74 265.151 230.11 264.541C225.8 264.231 221.49 263.981 217.17 263.421C212.86 262.881 208.54 262.091 204.23 261.361C199.92 260.651 195.61 259.961 191.29 259.671C186.98 259.371 182.67 259.261 178.35 259.551C169.73 260.031 161.1 262.621 152.48 263.651C148.17 264.201 143.86 264.271 139.54 264.111C135.23 263.971 130.92 263.671 126.6 263.211C122.29 262.751 117.98 262.131 113.66 261.271C109.35 260.391 105.04 259.371 100.72 257.781C100.28 257.621 100.05 257.131 100.21 256.691C100.3 256.451 100.49 256.271 100.72 256.181V256.201Z" fill="#0E2980"/>
</svg>
