<svg width="419" height="418" viewBox="0 0 419 418" fill="none" xmlns="http://www.w3.org/2000/svg">
<path d="M13.0858 168.72C19.9658 146.21 40.5858 78.77 107.206 37.71C114.126 33.44 205.846 -20.9501 300.546 24.9899C371.556 59.4399 395.796 126.81 402.306 145.82C407.946 162.32 440.816 264.96 374.326 344.24C311.626 419.02 212.996 410.48 191.166 407.84C102.316 397.08 14.7658 329.96 2.91578 248.85C-1.71422 217.15 6.31577 190.86 13.0958 168.72H13.0858Z" fill="#FCDB00"/>
<path d="M12.3658 168.5C14.2958 162.09 16.3557 155.7 18.6357 149.39C20.8657 143.06 23.3857 136.83 26.0757 130.67C31.4657 118.36 37.7657 106.42 45.0157 95.03C48.6757 89.35 52.5557 83.81 56.7057 78.45C58.7557 75.75 60.9257 73.14 63.0857 70.52C65.3257 67.97 67.5357 65.38 69.8957 62.93C72.1957 60.41 74.6457 58.06 77.0657 55.65C79.5557 53.33 82.0257 50.96 84.6357 48.76C87.1857 46.47 89.8858 44.38 92.5358 42.21L96.6357 39.12C97.3257 38.61 97.9957 38.08 98.6957 37.59L100.816 36.13C102.236 35.16 103.616 34.19 105.086 33.21C106.576 32.25 108.046 31.35 109.536 30.47C112.506 28.71 115.506 27.04 118.546 25.45C124.606 22.24 130.836 19.37 137.176 16.75C143.516 14.13 149.986 11.83 156.526 9.73001C163.096 7.73001 169.756 5.97998 176.486 4.50998C189.976 1.74998 203.746 0.02 217.596 0H222.786C224.516 0.04 226.246 0.149991 227.976 0.209991C231.436 0.289991 234.886 0.67999 238.336 0.98999C240.066 1.11999 241.776 1.36999 243.496 1.60999L248.636 2.32999C250.346 2.60999 252.046 2.97 253.746 3.28C255.446 3.62 257.156 3.88996 258.836 4.29996C272.346 7.35996 285.476 11.96 297.876 17.95L302.516 20.21C304.036 21.01 305.536 21.85 307.056 22.67L309.316 23.91L311.536 25.23L315.956 27.88C321.756 31.56 327.366 35.51 332.746 39.74C338.096 44.02 343.216 48.55 348.116 53.29C352.986 58.07 357.596 63.09 361.946 68.31C366.306 73.53 370.436 78.92 374.256 84.52C378.116 90.09 381.676 95.86 385.036 101.73C398.406 125.26 407.806 150.93 413.246 177.4C414.616 184.02 415.706 190.69 416.566 197.41C417.036 200.76 417.366 204.13 417.726 207.5C417.986 210.88 418.306 214.25 418.436 217.64C419.146 231.19 418.736 244.84 417.006 258.4C415.246 271.95 412.036 285.37 407.386 298.35C402.796 311.35 396.406 323.75 388.706 335.26C381.026 346.8 371.896 357.35 361.686 366.8C351.506 376.29 340.006 384.32 327.876 391.13L325.606 392.42L323.286 393.61L318.636 395.98L313.906 398.17L311.536 399.26C310.746 399.61 309.936 399.93 309.136 400.26L304.316 402.25L299.436 404.06L296.996 404.96L294.526 405.77L289.576 407.38C282.936 409.36 276.216 411.09 269.446 412.5C262.666 413.87 255.836 414.98 248.976 415.81C235.256 417.43 221.436 417.9 207.636 417.29C204.186 417.15 200.736 416.91 197.286 416.6C193.836 416.29 190.376 415.92 186.956 415.39L181.806 414.66L176.686 413.74C173.266 413.18 169.886 412.38 166.516 411.62C153.026 408.5 139.846 404.15 127.156 398.74C114.466 393.33 102.156 387.02 90.5657 379.55C87.6857 377.66 84.7758 375.82 81.9958 373.78L77.7858 370.79L73.6758 367.66C68.2058 363.48 62.9958 358.97 57.9158 354.33C47.8458 344.94 38.7258 334.54 30.6858 323.41C22.6858 312.24 16.0258 300.12 10.8058 287.48C8.33577 281.09 6.03574 274.65 4.45574 268C3.52574 264.72 2.92577 261.35 2.24577 258.02C2.06577 257.19 1.93572 256.35 1.81572 255.5L1.45574 252.97C1.24574 251.28 0.905753 249.62 0.785753 247.92C-0.704247 234.39 -0.00424743 220.75 2.28575 207.48C4.55575 194.19 8.42574 181.29 12.3957 168.52L12.3658 168.5ZM13.7958 168.94C11.8758 175.35 9.95572 181.75 8.31572 188.22C6.71572 194.69 5.31577 201.22 4.42577 207.81C2.59577 220.97 2.51572 234.37 4.75572 247.37C6.92572 260.38 11.2757 272.93 17.0257 284.67C22.9157 296.38 30.1858 307.32 38.5458 317.33C46.9058 327.35 56.2657 336.47 66.2657 344.8C71.3257 348.89 76.4258 352.92 81.7958 356.6L85.7858 359.39L89.8757 362.05C92.5657 363.87 95.4057 365.47 98.1557 367.19C100.926 368.88 103.796 370.41 106.616 372.03L110.936 374.28C112.386 375.02 113.796 375.82 115.266 376.5C118.196 377.89 121.076 379.39 124.066 380.65L128.516 382.62C130.006 383.26 131.526 383.84 133.026 384.45C145.066 389.25 157.426 393.26 170.056 396.01C182.686 398.81 195.426 400.61 208.386 401.21C221.326 401.86 234.336 401.5 247.236 400.24C272.996 397.61 298.346 390.73 321.096 378.69C332.436 372.65 343.156 365.43 352.806 356.92C362.506 348.47 371.166 338.81 378.806 328.4C382.646 323.21 386.066 317.71 389.276 312.09C390.136 310.71 390.806 309.24 391.576 307.82L393.826 303.51L395.856 299.09C396.516 297.61 397.256 296.16 397.826 294.64C402.816 282.65 406.526 270.05 408.866 257.15C411.116 244.24 412.296 231.06 412.056 217.85C411.976 204.64 410.566 191.42 408.226 178.38C407.046 171.86 405.626 165.37 403.876 158.98C403.026 155.78 402.086 152.6 401.086 149.45C400.066 146.31 398.976 143.15 397.836 140.04C393.276 127.59 387.606 115.55 380.836 104.17C367.356 81.39 349.246 61.39 327.776 46.38C322.396 42.65 316.836 39.21 311.136 36.04L306.806 33.77L304.636 32.64L302.426 31.6C300.946 30.91 299.486 30.2 298.006 29.53L293.506 27.65C291.996 27.04 290.516 26.37 288.996 25.8L284.416 24.14C282.886 23.61 281.386 22.97 279.826 22.53L275.176 21.11C272.106 20.09 268.926 19.42 265.796 18.6C265.006 18.41 264.236 18.19 263.436 18.03L261.056 17.56L256.306 16.58C230.866 11.87 204.626 12.62 179.126 17.55C166.376 20.06 153.776 23.52 141.476 27.94C135.326 30.13 129.256 32.59 123.286 35.23C120.306 36.55 117.346 37.95 114.456 39.43C113.006 40.16 111.576 40.92 110.196 41.69C108.816 42.48 107.396 43.35 106.006 44.17C83.5557 57.53 63.7157 75.68 48.1257 97.19C40.3357 107.94 33.5957 119.49 27.8957 131.54C25.0257 137.56 22.4758 143.73 20.1158 149.97C17.7758 156.22 15.7257 162.57 13.7757 168.97L13.7958 168.94Z" fill="#0E2980"/>
<path d="M102.876 152.43C104.686 148.44 109.136 138.66 119.586 135.29C129.536 132.08 141.636 135.73 148.296 144.72C157.246 156.78 151.026 171.2 150.006 173.43C149.126 175.37 143.376 188.31 130.296 190.57C116.166 193.01 102.226 181.48 99.8658 169.14C98.5058 162.02 101.256 155.97 102.866 152.43H102.876Z" fill="#0E2980"/>
<path d="M126.466 191.4C113.326 191.4 101.506 180.31 99.3857 169.24C97.9957 161.97 100.766 155.87 102.426 152.23L102.886 152.44L102.436 152.23C104.336 148.05 108.786 138.26 119.456 134.82C129.806 131.48 142.116 135.52 148.726 144.43C157.386 156.1 152.266 169.74 150.496 173.65C148.406 178.25 142.336 189.02 130.416 191.08C129.106 191.31 127.786 191.42 126.496 191.42L126.466 191.4ZM126.996 134.64C124.536 134.64 122.086 135 119.746 135.76C109.496 139.06 105.176 148.57 103.336 152.63C101.726 156.17 99.0457 162.08 100.376 169.04C102.416 179.71 113.806 190.39 126.456 190.39C127.706 190.39 128.966 190.29 130.236 190.07C141.686 188.09 147.556 177.67 149.556 173.28C151.306 169.44 156.256 156.23 147.926 145.01C143.066 138.46 134.996 134.64 127.016 134.64H126.996Z" fill="#0E2980"/>
<path d="M267.236 152.43C269.046 148.44 273.496 138.66 283.946 135.29C293.896 132.08 305.996 135.73 312.656 144.72C321.606 156.78 315.386 171.2 314.366 173.43C313.486 175.37 307.736 188.31 294.656 190.57C280.526 193.01 266.586 181.48 264.226 169.14C262.866 162.02 265.616 155.97 267.226 152.43H267.236Z" fill="#0E2980"/>
<path d="M290.826 191.4C277.686 191.4 265.866 180.31 263.746 169.24C262.356 161.97 265.126 155.87 266.786 152.23C268.686 148.05 273.136 138.26 283.806 134.82C294.156 131.48 306.466 135.52 313.076 144.43C321.736 156.09 316.616 169.74 314.846 173.65C312.756 178.25 306.686 189.02 294.766 191.08C293.456 191.31 292.136 191.42 290.846 191.42L290.826 191.4ZM291.356 134.64C288.896 134.64 286.446 135 284.106 135.76C273.856 139.06 269.536 148.57 267.696 152.63C266.086 156.17 263.406 162.08 264.736 169.04C266.776 179.71 278.166 190.39 290.816 190.39C292.066 190.39 293.326 190.29 294.596 190.07C306.046 188.09 311.916 177.67 313.906 173.28C315.656 169.44 320.606 156.23 312.276 145.01C307.416 138.46 299.346 134.64 291.366 134.64H291.356Z" fill="#0E2980"/>
<path d="M114.916 237.78C116.816 239.87 118.506 241.99 120.196 244.07C122.026 246.07 123.636 248.16 125.396 250.12L128.036 253.03C128.906 254 129.716 255 130.666 255.9C131.576 256.82 132.456 257.77 133.346 258.69C133.786 259.15 134.236 259.62 134.656 260.09L136.046 261.42C137.936 263.15 139.626 265.06 141.596 266.67L144.406 269.23C145.326 270.1 146.346 270.85 147.306 271.67C148.276 272.48 149.256 273.27 150.206 274.1C151.186 274.89 152.216 275.62 153.176 276.44C154.156 277.23 155.126 278.05 156.086 278.87C157.096 279.62 158.086 280.41 159.076 281.21C160.086 281.97 160.996 282.91 162.046 283.63C163.056 284.41 164.086 285.17 165.096 285.99C167.086 287.68 169.276 289.04 171.426 290.56L173.056 291.68L174.756 292.65C175.896 293.3 177.046 293.93 178.206 294.55C180.536 295.79 183.016 296.65 185.486 297.59C187.986 298.42 190.566 298.97 193.136 299.53C194.436 299.75 195.746 299.89 197.056 300.03C198.366 300.18 199.666 300.31 200.976 300.4C203.606 300.4 206.236 300.39 208.846 300.2C210.146 300.06 211.446 299.91 212.736 299.73L216.586 299.04C221.676 297.97 226.586 296.43 231.346 294.73C236.106 293.01 240.776 291.2 245.266 288.98C254.266 284.53 262.456 278.73 270.526 272.64C278.626 266.56 286.406 259.8 294.046 252.6C297.866 249 301.646 245.28 305.446 241.49C309.256 237.71 313.046 233.82 317.046 229.97C317.376 229.65 317.896 229.66 318.216 229.99C318.436 230.21 318.496 230.53 318.416 230.81C316.776 236.15 314.606 241.28 312.146 246.27C309.676 251.26 306.856 256.09 303.726 260.74C297.476 270.04 289.966 278.66 281.176 286.02C272.356 293.35 262.036 299.01 251.136 302.92C245.686 304.88 240.076 306.46 234.346 307.26C228.616 308.08 222.816 308.15 217.146 307.79L212.906 307.45C211.496 307.27 210.106 307.11 208.706 306.96C207.316 306.79 205.936 306.53 204.556 306.33C203.176 306.15 201.806 305.92 200.426 305.77C197.696 305.24 194.976 304.75 192.256 304.3C190.916 303.98 189.566 303.68 188.206 303.4C186.866 303.09 185.476 302.95 184.136 302.58C182.796 302.23 181.436 301.96 180.086 301.64C178.726 301.35 177.336 301.11 175.996 300.72C174.646 300.37 173.286 300.02 171.906 299.7L169.836 299.21L167.806 298.61C165.106 297.77 162.306 297.04 159.666 295.94C158.326 295.44 157.006 294.87 155.666 294.33C154.996 294.06 154.356 293.74 153.726 293.41C153.086 293.09 152.446 292.75 151.816 292.41C150.546 291.73 149.286 291.04 148.046 290.3C146.826 289.54 145.676 288.68 144.506 287.85C143.336 287.01 142.176 286.17 141.066 285.25C139.986 284.3 138.946 283.31 137.886 282.35L136.306 280.89C135.766 280.41 135.256 279.91 134.786 279.37L131.886 276.2C130.926 275.14 129.976 274.07 129.126 272.92C128.246 271.79 127.386 270.65 126.556 269.49L125.296 267.77C124.906 267.17 124.536 266.56 124.156 265.95C123.416 264.73 122.656 263.52 121.936 262.3C120.476 259.86 119.346 257.23 118.136 254.69C117.836 254.05 117.566 253.4 117.336 252.73C117.086 252.07 116.846 251.4 116.616 250.73C116.136 249.4 115.686 248.06 115.256 246.73C114.496 244.01 113.936 241.22 113.476 238.46C113.406 238.01 113.706 237.59 114.156 237.51C114.436 237.46 114.716 237.57 114.896 237.76L114.946 237.81L114.916 237.78Z" fill="#0E2980"/>
</svg>
