<svg width="408" height="422" viewBox="0 0 408 422" fill="none" xmlns="http://www.w3.org/2000/svg">
<path d="M3.97352 249.827C-13.1065 154.847 43.3035 59.4571 124.174 22.7871C138.054 16.4971 195.464 -7.48303 261.544 14.197C328.874 36.287 360.454 91.107 372.204 111.497C382.614 129.557 403.814 167.457 402.734 219.297C400.754 314.347 325.624 371.187 320.694 374.797C257.004 421.367 167.824 427.247 98.4235 386.247C91.5035 382.157 19.8835 338.227 3.98352 249.827H3.97352Z" fill="#FCDB00"/>
<path d="M3.23353 249.967C-1.38647 223.827 -0.996469 196.877 4.02353 170.667C9.16353 144.497 18.8235 119.007 32.9335 95.9569C40.0435 84.4769 48.1235 73.537 57.2835 63.507C58.3935 62.217 59.5835 61.007 60.7735 59.797L64.3335 56.1469C66.7935 53.7969 69.2335 51.4269 71.7535 49.1469L75.6135 45.807L77.5435 44.1369L79.5435 42.547L83.5435 39.3568C84.8735 38.2868 86.2835 37.327 87.6535 36.317C98.7035 28.317 110.564 21.3669 123.144 15.9069C129.444 13.1769 135.864 10.807 142.384 8.80702C148.894 6.77702 155.514 5.137 162.194 3.787C168.864 2.427 175.624 1.49682 182.394 0.856822C189.164 0.246822 195.974 -0.103011 202.764 0.0269885C216.354 0.256989 229.904 1.88699 243.064 5.02699C249.644 6.61699 256.114 8.54698 262.484 10.767C268.824 13.057 275.044 15.657 281.104 18.577C287.144 21.527 293.034 24.7768 298.724 28.3368C304.434 31.8568 309.914 35.7268 315.194 39.8468C336.354 56.3068 353.884 76.977 368.064 99.547C371.634 105.197 374.984 110.887 378.304 116.657C381.644 122.427 384.804 128.327 387.714 134.367C390.654 140.397 393.214 146.607 395.624 152.887L397.344 157.637C397.934 159.217 398.394 160.837 398.914 162.437C399.404 164.047 399.984 165.637 400.404 167.267L401.744 172.147C405.244 185.197 407.234 198.687 407.804 212.257C407.874 215.647 408.104 219.057 407.954 222.457L407.854 227.557C407.824 229.257 407.654 230.957 407.544 232.657C407.414 234.357 407.314 236.057 407.154 237.757L406.544 242.837C406.204 246.237 405.534 249.577 404.994 252.957C404.744 254.647 404.324 256.307 403.984 257.977C403.624 259.647 403.284 261.317 402.894 262.987L401.584 267.937L400.924 270.417L400.164 272.867L398.634 277.757C398.094 279.377 397.494 280.977 396.934 282.587C395.844 285.827 394.494 288.967 393.234 292.137C390.544 298.407 387.664 304.617 384.364 310.587C381.114 316.587 377.614 322.447 373.804 328.097C366.264 339.457 357.714 350.117 348.344 360.027C343.644 364.967 338.754 369.737 333.584 374.267C330.974 376.547 328.394 378.717 325.484 380.937L321.274 383.957L319.174 385.457L317.024 386.887L312.724 389.727L308.324 392.407L306.124 393.747L303.874 395.007L299.364 397.497L294.764 399.817L292.464 400.967L290.124 402.047L285.434 404.187L280.674 406.167C279.094 406.847 277.494 407.457 275.884 408.047C274.274 408.637 272.664 409.257 271.044 409.817C267.774 410.877 264.544 412.027 261.234 412.937C254.664 414.927 247.964 416.477 241.234 417.787C227.744 420.277 214.024 421.627 200.314 421.437C186.604 421.387 172.914 419.847 159.514 417.077C146.144 414.147 133.014 410.047 120.584 404.397L115.934 402.267L111.364 399.967L109.084 398.817L106.854 397.577L102.404 395.077L98.0435 392.417L95.8735 391.087C95.1335 390.627 94.4035 390.137 93.6835 389.657C90.8235 387.727 88.0835 385.717 85.3835 383.657C63.9935 367.017 45.9435 346.637 31.8335 323.977C24.7535 312.657 18.8335 300.667 13.9635 288.307L12.2535 283.627L11.3835 281.287L10.6135 278.917L9.07353 274.187C8.59353 272.597 8.16353 270.997 7.71353 269.397C6.75353 266.217 6.03353 262.977 5.23353 259.757C4.81353 258.157 4.53353 256.517 4.20353 254.887L3.24353 250.007L3.23353 249.967ZM4.71353 249.697L5.71353 254.527C6.05353 256.137 6.34353 257.757 6.78353 259.347C7.60353 262.537 8.33353 265.747 9.34353 268.877C9.83353 270.447 10.2935 272.027 10.7935 273.587L12.4235 278.237L13.2435 280.567L14.1535 282.857L15.9935 287.427C18.6635 293.427 21.4035 299.407 24.6935 305.087L25.8835 307.237L27.1535 309.347C28.0035 310.747 28.8135 312.167 29.7035 313.547C31.5035 316.287 33.2635 319.047 35.1935 321.697C50.3335 343.057 69.6735 361.267 91.1735 375.497C93.8635 377.267 96.5935 378.967 99.3335 380.547C100.024 380.937 100.694 381.317 101.384 381.687L103.524 382.797L107.804 385.007L112.164 387.047L114.344 388.067L116.554 389.017L120.964 390.907L125.444 392.627L127.684 393.487L129.954 394.267L134.484 395.837L139.064 397.237L141.354 397.937L143.664 398.547L148.284 399.797L152.944 400.877L155.274 401.407L157.624 401.857L162.314 402.767C187.404 407.197 213.274 406.977 238.204 402.007C244.414 400.697 250.624 399.307 256.694 397.437C259.754 396.597 262.744 395.517 265.764 394.537C267.264 394.017 268.744 393.437 270.234 392.887C271.724 392.347 273.214 391.797 274.674 391.177L279.084 389.377L283.424 387.427L285.594 386.447L287.724 385.397L291.984 383.287L296.164 381.027L298.264 379.907L300.314 378.707L304.424 376.307L308.434 373.757L310.434 372.477L312.394 371.127L316.294 368.437C318.674 366.697 321.184 364.657 323.584 362.627C328.424 358.537 333.084 354.137 337.564 349.577C346.524 340.457 354.804 330.607 362.104 320.097C369.464 309.627 375.764 298.437 381.074 286.827C386.284 275.167 390.414 263.027 393.204 250.547C398.694 225.607 399.184 199.347 393.764 174.037C391.074 161.397 387.164 148.947 381.934 137.007C379.344 131.027 376.504 125.147 373.424 119.367C370.294 113.607 367.084 107.827 363.734 102.217C350.394 79.7169 333.194 59.3369 312.274 43.6969C301.844 35.8569 290.474 29.3469 278.564 24.1769C272.574 21.6569 266.464 19.467 260.274 17.577C254.064 15.737 247.754 14.2769 241.394 13.1369C215.934 8.67685 189.764 10.027 164.864 16.027C152.404 19.007 140.184 23.0469 128.574 28.2069C116.954 33.4069 105.854 39.8269 95.3935 47.1569C74.4335 61.8069 56.0035 80.237 40.9235 101.257C33.3535 111.757 26.7635 123.007 21.1635 134.757C15.5735 146.517 10.9935 158.827 7.74353 171.517C1.29353 196.897 0.0435281 223.787 4.72353 249.717L4.71353 249.697Z" fill="#0E2980"/>
<path d="M316.893 196.507C324.173 262.917 273.214 322.317 207.624 325.577C141.944 328.837 85.3135 274.637 86.1035 207.747C116.164 206.257 168.494 203.697 198.554 202.227C231.234 200.637 284.203 198.067 316.893 196.497V196.507Z" fill="#0E2980"/>
<path d="M317.324 196.017C317.744 197.907 318.234 200.047 318.604 202.287C318.894 204.347 319.074 206.277 319.294 208.297C319.464 210.297 319.534 212.307 319.654 214.317C319.714 216.327 319.634 218.347 319.624 220.367C319.414 228.447 318.224 236.537 316.184 244.437C312.094 260.247 304.434 275.227 294.014 288.027C288.794 294.417 282.914 300.297 276.454 305.457C270.014 310.647 262.964 315.107 255.494 318.687C240.564 325.897 223.974 329.277 207.704 329.227C199.554 329.177 191.454 328.367 183.544 326.747C175.634 325.147 167.894 322.887 160.444 319.917C145.514 314.037 131.734 305.397 119.764 294.577C107.814 283.747 97.7435 270.577 90.7335 255.697C83.7435 240.817 80.0935 224.267 80.0135 207.677C79.9935 204.497 82.4535 201.887 85.5835 201.677H85.8135L114.634 199.727C124.244 199.117 133.854 198.457 143.464 197.957C153.074 197.437 162.694 196.997 172.314 196.647C177.124 196.447 181.934 196.307 186.754 196.157L193.974 195.927L201.304 195.757C221.264 195.277 241.194 195.067 260.644 195.207C280.104 195.307 299.134 195.597 317.324 196.007V196.017ZM316.484 197.007C296.204 199.277 276.774 201.427 257.764 203.387C238.754 205.387 220.214 207.047 201.704 208.417L194.614 208.947L187.404 209.427C182.604 209.747 177.794 210.087 172.994 210.347C163.384 210.937 153.774 211.437 144.154 211.867C134.534 212.317 124.914 212.597 115.294 212.937L86.4235 213.837L92.2135 207.817C91.7735 222.767 94.2835 237.807 99.5435 251.997C104.744 266.207 112.864 279.557 123.524 290.717C134.134 301.917 147.384 310.737 161.884 316.207C169.144 318.917 176.704 320.817 184.364 321.747C192.024 322.657 199.754 322.747 207.354 321.927C222.584 320.347 237.144 315.487 250.384 308.507C257.004 304.997 263.314 300.927 269.244 296.337L273.604 292.777L277.784 289.007L281.794 285.057C283.064 283.667 284.354 282.307 285.604 280.907C295.544 269.617 303.404 256.427 308.634 242.097C311.254 234.937 313.204 227.497 314.494 219.877C314.754 217.967 315.094 216.057 315.294 214.127C315.484 212.197 315.734 210.267 315.874 208.327L316.184 202.517C316.224 200.827 316.394 199.047 316.484 197.007Z" fill="#0E2980"/>
<path d="M112.304 161.207C110.224 156.887 108.914 152.027 108.854 147.017V145.137C108.874 144.507 108.954 143.887 109.004 143.257C109.074 141.987 109.364 140.747 109.574 139.487C110.174 137.007 110.934 134.517 112.104 132.167C114.414 127.487 117.974 123.217 122.554 120.177C127.144 117.197 132.474 115.417 138.024 114.977C143.554 114.567 149.434 115.327 154.814 117.877C160.214 120.397 164.594 124.967 167.074 130.197C172.174 140.667 170.334 153.387 163.224 160.817C162.954 161.097 162.514 161.107 162.244 160.837C162.104 160.697 162.034 160.517 162.034 160.337V160.307C162.034 155.337 161.654 150.977 160.554 146.997C160.034 145.007 159.314 143.157 158.554 141.397L157.914 140.117L157.604 139.487L157.234 138.887C156.984 138.487 156.784 138.077 156.534 137.687L155.754 136.567C154.684 135.117 153.614 133.717 152.374 132.507L151.934 132.027L151.454 131.597C151.124 131.317 150.844 130.977 150.514 130.707C149.844 130.177 149.214 129.567 148.484 129.087C145.694 127.027 142.114 125.537 138.254 125.377C134.424 125.177 130.424 125.947 126.874 127.657C123.294 129.297 120.124 132.017 117.714 135.437C116.474 137.127 115.514 139.037 114.654 141.007C113.894 143.017 113.264 145.117 112.914 147.307C112.784 147.847 112.754 148.397 112.694 148.957C112.644 149.507 112.554 150.067 112.534 150.617C112.514 151.727 112.434 152.857 112.534 153.987C112.574 156.257 113.004 158.507 113.514 160.777V160.807C113.594 161.157 113.374 161.507 113.024 161.587C112.724 161.657 112.424 161.497 112.294 161.237L112.304 161.207Z" fill="#0E2980"/>
<path d="M240.014 161.207C233.234 153.487 231.803 140.847 237.003 130.527C239.543 125.367 243.894 120.887 249.204 118.337C254.484 115.787 260.184 114.847 265.734 114.967C271.294 115.117 276.823 116.737 281.493 119.707C282.663 120.437 283.723 121.327 284.773 122.197C285.293 122.637 285.763 123.147 286.243 123.617L286.963 124.337L287.613 125.107C289.413 127.127 290.794 129.437 291.954 131.777C293.094 134.147 293.814 136.657 294.354 139.157C294.534 140.427 294.793 141.677 294.833 142.947C294.863 143.577 294.943 144.207 294.933 144.837L294.893 146.727C294.683 151.747 293.203 156.567 290.943 160.797C290.773 161.117 290.373 161.237 290.063 161.067C289.793 160.917 289.663 160.607 289.743 160.327V160.297C290.353 158.057 290.873 155.827 290.993 153.557C291.223 151.317 291.113 149.067 290.833 146.887C290.543 144.697 289.973 142.587 289.253 140.567C288.433 138.577 287.523 136.657 286.303 134.967C281.603 127.987 273.644 124.547 265.984 125.367C262.154 125.727 258.523 127.337 255.663 129.477C254.923 129.987 254.294 130.597 253.604 131.147C253.264 131.427 252.983 131.767 252.653 132.047L252.163 132.487L251.713 132.967C250.453 134.187 249.363 135.597 248.253 137.057L247.454 138.187C247.194 138.567 246.984 138.987 246.734 139.387C246.184 140.167 245.843 141.047 245.343 141.887C244.543 143.637 243.763 145.487 243.193 147.467C241.973 151.437 241.453 155.787 241.243 160.757V160.777C241.223 161.157 240.903 161.457 240.523 161.447C240.323 161.447 240.153 161.347 240.033 161.207H240.014Z" fill="#0E2980"/>
<path d="M186.024 290.017C170.994 293.517 158.144 298.997 147.534 304.877C166.384 316.167 188.524 322.237 211.804 321.077C236.064 319.877 258.324 310.977 276.374 296.897C254.634 288.667 222.514 281.517 186.024 290.017Z" fill="#FF55AB"/>
<path d="M308.914 200.647C278.614 201.497 229.504 202.887 199.194 203.757C171.314 204.557 122.804 205.967 94.9335 206.787C94.4835 220.927 96.8235 234.507 101.424 247.027L304.374 242.397C308.514 229.287 310.204 215.177 308.914 200.647Z" fill="white"/>
<path d="M132.433 202.807C132.753 207.067 132.963 211.327 133.233 215.587C133.463 219.847 133.664 224.107 133.834 228.367C134.004 232.627 134.523 236.887 134.233 241.147C134.123 243.277 133.914 245.407 133.644 247.537C133.364 249.667 133.013 251.797 132.433 253.927C132.403 254.037 132.293 254.107 132.183 254.077C132.113 254.057 132.053 253.997 132.033 253.927C131.463 251.797 131.103 249.667 130.823 247.537C130.543 245.407 130.343 243.277 130.233 241.147C129.943 236.887 130.464 232.627 130.634 228.367C130.804 224.107 131.003 219.847 131.233 215.587C131.503 211.327 131.713 207.067 132.033 202.807C132.033 202.697 132.134 202.617 132.244 202.627C132.344 202.627 132.423 202.717 132.423 202.807H132.433Z" fill="#0E2980"/>
<path d="M169.614 202.807C169.934 207.067 170.144 211.327 170.414 215.587C170.644 219.847 170.844 224.107 171.014 228.367C171.184 232.627 171.704 236.887 171.414 241.147C171.304 243.277 171.094 245.407 170.824 247.537C170.544 249.667 170.194 251.797 169.614 253.927C169.584 254.037 169.474 254.107 169.364 254.077C169.294 254.057 169.234 253.997 169.214 253.927C168.644 251.797 168.284 249.667 168.004 247.537C167.724 245.407 167.524 243.277 167.414 241.147C167.124 236.887 167.644 232.627 167.814 228.367C167.984 224.107 168.184 219.847 168.414 215.587C168.684 211.327 168.894 207.067 169.214 202.807C169.214 202.697 169.314 202.617 169.424 202.627C169.524 202.627 169.604 202.717 169.604 202.807H169.614Z" fill="#0E2980"/>
<path d="M207.754 202.807C208.074 207.067 208.284 211.327 208.554 215.587C208.784 219.847 208.983 224.107 209.153 228.367C209.323 232.627 209.844 236.887 209.554 241.147C209.444 243.277 209.233 245.407 208.963 247.537C208.683 249.667 208.334 251.797 207.754 253.927C207.724 254.037 207.614 254.107 207.504 254.077C207.434 254.057 207.374 253.997 207.354 253.927C206.784 251.797 206.424 249.667 206.144 247.537C205.864 245.407 205.664 243.277 205.554 241.147C205.264 236.887 205.783 232.627 205.953 228.367C206.123 224.107 206.324 219.847 206.554 215.587C206.824 211.327 207.034 207.067 207.354 202.807C207.354 202.697 207.454 202.617 207.564 202.627C207.664 202.627 207.744 202.717 207.744 202.807H207.754Z" fill="#0E2980"/>
<path d="M244.934 202.807C245.254 207.067 245.464 211.327 245.734 215.587C245.964 219.847 246.164 224.107 246.334 228.367C246.504 232.627 247.024 236.887 246.734 241.147C246.624 243.277 246.414 245.407 246.144 247.537C245.864 249.667 245.514 251.797 244.934 253.927C244.904 254.037 244.794 254.107 244.684 254.077C244.614 254.057 244.554 253.997 244.534 253.927C243.964 251.797 243.604 249.667 243.324 247.537C243.044 245.407 242.844 243.277 242.734 241.147C242.444 236.887 242.964 232.627 243.134 228.367C243.304 224.107 243.504 219.847 243.734 215.587C244.004 211.327 244.214 207.067 244.534 202.807C244.534 202.697 244.634 202.617 244.744 202.627C244.844 202.627 244.924 202.717 244.924 202.807H244.934Z" fill="#0E2980"/>
<path d="M280.184 202.807C280.504 207.067 280.714 211.327 280.984 215.587C281.214 219.847 281.414 224.107 281.584 228.367C281.754 232.627 282.274 236.887 281.984 241.147C281.874 243.277 281.664 245.407 281.394 247.537C281.114 249.667 280.764 251.797 280.184 253.927C280.154 254.037 280.044 254.107 279.934 254.077C279.864 254.057 279.804 253.997 279.784 253.927C279.214 251.797 278.854 249.667 278.574 247.537C278.294 245.407 278.094 243.277 277.984 241.147C277.694 236.887 278.214 232.627 278.384 228.367C278.554 224.107 278.754 219.847 278.984 215.587C279.254 211.327 279.464 207.067 279.784 202.807C279.784 202.697 279.884 202.617 279.994 202.627C280.094 202.627 280.174 202.717 280.174 202.807H280.184Z" fill="#0E2980"/>
</svg>
